<mxfile host="app.diagrams.net" modified="2021-02-19T11:34:19.270Z" agent="5.0 (Macintosh; Intel Mac OS X 11_1_0) AppleWebKit/537.36 (KHTML, like Gecko) Chrome/88.0.4324.150 Safari/537.36" etag="IkswbE1e52PJ5O59tmcq" version="14.4.2" type="github" pages="3">
  <diagram id="pcYTgaK5WTAk9WqmM9hy" name="旧策略流程">
    <mxGraphModel dx="1186" dy="764" grid="0" gridSize="10" guides="1" tooltips="1" connect="1" arrows="1" fold="1" page="1" pageScale="1" pageWidth="827" pageHeight="1169" math="0" shadow="0">
      <root>
        <mxCell id="0" />
        <mxCell id="1" parent="0" />
        <mxCell id="ZQTWhxB4xibD_iryzVkz-3" value="" style="shape=curlyBracket;whiteSpace=wrap;html=1;rounded=1;" vertex="1" parent="1">
          <mxGeometry x="221" y="240" width="30" height="120" as="geometry" />
        </mxCell>
        <mxCell id="ZQTWhxB4xibD_iryzVkz-4" value="用户活跃频率" style="text;html=1;strokeColor=none;fillColor=none;align=center;verticalAlign=middle;whiteSpace=wrap;rounded=0;" vertex="1" parent="1">
          <mxGeometry x="256" y="230" width="80" height="20" as="geometry" />
        </mxCell>
        <mxCell id="ZQTWhxB4xibD_iryzVkz-5" value="设备活跃频率" style="text;html=1;strokeColor=none;fillColor=none;align=center;verticalAlign=middle;whiteSpace=wrap;rounded=0;" vertex="1" parent="1">
          <mxGeometry x="250" y="350" width="100" height="20" as="geometry" />
        </mxCell>
        <mxCell id="ZQTWhxB4xibD_iryzVkz-6" value="频控策略" style="text;html=1;strokeColor=none;fillColor=none;align=center;verticalAlign=middle;whiteSpace=wrap;rounded=0;" vertex="1" parent="1">
          <mxGeometry x="159" y="290" width="60" height="20" as="geometry" />
        </mxCell>
        <mxCell id="ZQTWhxB4xibD_iryzVkz-8" value="单点策略" style="text;html=1;strokeColor=none;fillColor=none;align=center;verticalAlign=middle;whiteSpace=wrap;rounded=0;" vertex="1" parent="1">
          <mxGeometry x="163" y="477" width="52" height="20" as="geometry" />
        </mxCell>
        <mxCell id="ZQTWhxB4xibD_iryzVkz-9" value="" style="shape=curlyBracket;whiteSpace=wrap;html=1;rounded=1;" vertex="1" parent="1">
          <mxGeometry x="221" y="405" width="20" height="165" as="geometry" />
        </mxCell>
        <mxCell id="ZQTWhxB4xibD_iryzVkz-10" value="账号属性" style="text;html=1;strokeColor=none;fillColor=none;align=center;verticalAlign=middle;whiteSpace=wrap;rounded=0;" vertex="1" parent="1">
          <mxGeometry x="250" y="400" width="51" height="20" as="geometry" />
        </mxCell>
        <mxCell id="ZQTWhxB4xibD_iryzVkz-11" value="设备属性" style="text;html=1;strokeColor=none;fillColor=none;align=center;verticalAlign=middle;whiteSpace=wrap;rounded=0;" vertex="1" parent="1">
          <mxGeometry x="251" y="477" width="50" height="20" as="geometry" />
        </mxCell>
        <mxCell id="ZQTWhxB4xibD_iryzVkz-12" value="ip属性" style="text;html=1;strokeColor=none;fillColor=none;align=center;verticalAlign=middle;whiteSpace=wrap;rounded=0;" vertex="1" parent="1">
          <mxGeometry x="250" y="560" width="40" height="20" as="geometry" />
        </mxCell>
        <mxCell id="ZQTWhxB4xibD_iryzVkz-13" value="" style="shape=curlyBracket;whiteSpace=wrap;html=1;rounded=1;" vertex="1" parent="1">
          <mxGeometry x="131" y="300" width="20" height="190" as="geometry" />
        </mxCell>
        <mxCell id="ZQTWhxB4xibD_iryzVkz-14" value="&lt;font style=&quot;font-size: 16px&quot;&gt;实时打击&lt;/font&gt;" style="text;html=1;strokeColor=none;fillColor=none;align=center;verticalAlign=middle;whiteSpace=wrap;rounded=0;" vertex="1" parent="1">
          <mxGeometry x="57" y="386" width="69" height="20" as="geometry" />
        </mxCell>
        <mxCell id="ZQTWhxB4xibD_iryzVkz-16" value="" style="verticalLabelPosition=bottom;verticalAlign=top;html=1;shape=mxgraph.basic.rect;fillColor2=none;strokeWidth=1;size=20;indent=5;fillColor=none;dashed=1;shadow=1;" vertex="1" parent="1">
          <mxGeometry x="215.5" y="385" width="121" height="205" as="geometry" />
        </mxCell>
        <mxCell id="ZQTWhxB4xibD_iryzVkz-17" value="" style="endArrow=classic;html=1;entryX=0;entryY=0.5;entryDx=0;entryDy=0;curved=1;" edge="1" parent="1" target="ZQTWhxB4xibD_iryzVkz-20">
          <mxGeometry width="50" height="50" relative="1" as="geometry">
            <mxPoint x="336.5" y="486.5" as="sourcePoint" />
            <mxPoint x="426.5" y="486.5" as="targetPoint" />
          </mxGeometry>
        </mxCell>
        <mxCell id="ZQTWhxB4xibD_iryzVkz-18" value="组合" style="text;html=1;strokeColor=none;fillColor=none;align=center;verticalAlign=middle;whiteSpace=wrap;rounded=0;dashed=1;" vertex="1" parent="1">
          <mxGeometry x="355" y="467" width="51" height="20" as="geometry" />
        </mxCell>
        <mxCell id="ZQTWhxB4xibD_iryzVkz-20" value="单点策略打击等级" style="rounded=0;whiteSpace=wrap;html=1;glass=0;shadow=1;" vertex="1" parent="1">
          <mxGeometry x="441" y="457" width="120" height="60" as="geometry" />
        </mxCell>
        <mxCell id="ZQTWhxB4xibD_iryzVkz-21" value="" style="endArrow=classic;html=1;curved=1;" edge="1" parent="1">
          <mxGeometry width="50" height="50" relative="1" as="geometry">
            <mxPoint x="336.5" y="240" as="sourcePoint" />
            <mxPoint x="441" y="300" as="targetPoint" />
          </mxGeometry>
        </mxCell>
        <mxCell id="ZQTWhxB4xibD_iryzVkz-22" value="" style="endArrow=classic;html=1;exitX=1;exitY=0.75;exitDx=0;exitDy=0;curved=1;" edge="1" parent="1" source="ZQTWhxB4xibD_iryzVkz-5">
          <mxGeometry width="50" height="50" relative="1" as="geometry">
            <mxPoint x="351" y="540" as="sourcePoint" />
            <mxPoint x="441" y="300" as="targetPoint" />
          </mxGeometry>
        </mxCell>
        <mxCell id="ZQTWhxB4xibD_iryzVkz-23" value="频控策略打击等级" style="rounded=0;whiteSpace=wrap;html=1;shadow=1;" vertex="1" parent="1">
          <mxGeometry x="441" y="270" width="120" height="60" as="geometry" />
        </mxCell>
        <mxCell id="ZQTWhxB4xibD_iryzVkz-30" value="" style="shape=ext;double=1;rounded=0;whiteSpace=wrap;html=1;shadow=0;glass=0;fillColor=none;dashed=1;direction=south;" vertex="1" parent="1">
          <mxGeometry x="421" y="230" width="160" height="340" as="geometry" />
        </mxCell>
        <mxCell id="ZQTWhxB4xibD_iryzVkz-31" value="" style="shape=flexArrow;endArrow=classic;html=1;curved=1;" edge="1" parent="1">
          <mxGeometry width="50" height="50" relative="1" as="geometry">
            <mxPoint x="591" y="380" as="sourcePoint" />
            <mxPoint x="671" y="380" as="targetPoint" />
          </mxGeometry>
        </mxCell>
        <mxCell id="ZQTWhxB4xibD_iryzVkz-33" value="最终打击结果" style="rounded=0;whiteSpace=wrap;html=1;shadow=1;glass=0;strokeColor=#000000;fillColor=none;" vertex="1" parent="1">
          <mxGeometry x="681" y="350" width="120" height="60" as="geometry" />
        </mxCell>
        <mxCell id="ZQTWhxB4xibD_iryzVkz-34" value="" style="edgeStyle=elbowEdgeStyle;elbow=vertical;endArrow=classic;html=1;dashed=1;dashPattern=1 1;curved=1;" edge="1" parent="1">
          <mxGeometry width="50" height="50" relative="1" as="geometry">
            <mxPoint x="181" y="280" as="sourcePoint" />
            <mxPoint x="261" y="150" as="targetPoint" />
          </mxGeometry>
        </mxCell>
        <mxCell id="ZQTWhxB4xibD_iryzVkz-35" value="依赖程度较高，导致较多的漏过" style="text;html=1;strokeColor=none;fillColor=none;align=center;verticalAlign=middle;whiteSpace=wrap;rounded=0;shadow=1;glass=0;fontColor=#FF0000;" vertex="1" parent="1">
          <mxGeometry x="206" y="120" width="130" height="20" as="geometry" />
        </mxCell>
        <mxCell id="ZQTWhxB4xibD_iryzVkz-36" value="" style="edgeStyle=elbowEdgeStyle;elbow=horizontal;endArrow=classic;html=1;dashed=1;dashPattern=1 1;curved=1;" edge="1" parent="1">
          <mxGeometry width="50" height="50" relative="1" as="geometry">
            <mxPoint x="181" y="497" as="sourcePoint" />
            <mxPoint x="229" y="630" as="targetPoint" />
            <Array as="points">
              <mxPoint x="181" y="567" />
            </Array>
          </mxGeometry>
        </mxCell>
        <mxCell id="ZQTWhxB4xibD_iryzVkz-37" value="黑产很容易绕过" style="text;html=1;strokeColor=none;fillColor=none;align=center;verticalAlign=middle;whiteSpace=wrap;rounded=0;shadow=1;glass=0;fontColor=#FF0D05;" vertex="1" parent="1">
          <mxGeometry x="226" y="620" width="110" height="20" as="geometry" />
        </mxCell>
        <mxCell id="cKSJQpqKH7MzcSAlPMmW-2" style="edgeStyle=orthogonalEdgeStyle;curved=1;rounded=0;orthogonalLoop=1;jettySize=auto;html=1;exitX=0.5;exitY=1;exitDx=0;exitDy=0;dashed=1;dashPattern=1 1;fontColor=#FF0000;" edge="1" parent="1" source="ZQTWhxB4xibD_iryzVkz-14" target="ZQTWhxB4xibD_iryzVkz-14">
          <mxGeometry relative="1" as="geometry" />
        </mxCell>
      </root>
    </mxGraphModel>
  </diagram>
  <diagram id="ShZt9jGOSufZn50kroce" name="新策略流程">
    <mxGraphModel dx="1186" dy="764" grid="0" gridSize="10" guides="1" tooltips="1" connect="1" arrows="1" fold="1" page="1" pageScale="1" pageWidth="827" pageHeight="1169" math="0" shadow="0">
      <root>
        <mxCell id="NFOAvo5q_f1hfCJbUeut-0" />
        <mxCell id="NFOAvo5q_f1hfCJbUeut-1" parent="NFOAvo5q_f1hfCJbUeut-0" />
        <mxCell id="dHWlD4So--FSExmU2GUl-0" value="&lt;font color=&quot;#000000&quot; style=&quot;font-size: 16px;&quot;&gt;实时打击&lt;/font&gt;" style="text;html=1;strokeColor=none;fillColor=none;align=center;verticalAlign=middle;whiteSpace=wrap;rounded=0;shadow=1;glass=0;fontColor=#FF0000;fontSize=16;" vertex="1" parent="NFOAvo5q_f1hfCJbUeut-1">
          <mxGeometry x="93" y="230" width="77.25" height="20" as="geometry" />
        </mxCell>
        <mxCell id="dHWlD4So--FSExmU2GUl-1" value="&lt;font color=&quot;#000000&quot; style=&quot;font-size: 16px;&quot;&gt;离线挖掘&lt;/font&gt;" style="text;html=1;strokeColor=none;fillColor=none;align=center;verticalAlign=middle;whiteSpace=wrap;rounded=0;shadow=1;glass=0;fontColor=#FF0000;fontSize=16;" vertex="1" parent="NFOAvo5q_f1hfCJbUeut-1">
          <mxGeometry x="95" y="445" width="71.5" height="20" as="geometry" />
        </mxCell>
        <mxCell id="dHWlD4So--FSExmU2GUl-2" value="" style="shape=curlyBracket;whiteSpace=wrap;html=1;rounded=1;shadow=0;glass=0;strokeColor=#000000;fillColor=none;fontColor=#FF0000;" vertex="1" parent="NFOAvo5q_f1hfCJbUeut-1">
          <mxGeometry x="170.25" y="168" width="20" height="148" as="geometry" />
        </mxCell>
        <mxCell id="dHWlD4So--FSExmU2GUl-3" value="频控策略" style="text;html=1;strokeColor=none;fillColor=none;align=center;verticalAlign=middle;whiteSpace=wrap;rounded=0;shadow=1;glass=0;" vertex="1" parent="NFOAvo5q_f1hfCJbUeut-1">
          <mxGeometry x="197" y="158" width="52" height="20" as="geometry" />
        </mxCell>
        <mxCell id="dHWlD4So--FSExmU2GUl-4" value="单点策略" style="text;html=1;strokeColor=none;fillColor=none;align=center;verticalAlign=middle;whiteSpace=wrap;rounded=0;shadow=0;glass=0;fontColor=#000000;" vertex="1" parent="NFOAvo5q_f1hfCJbUeut-1">
          <mxGeometry x="195" y="306" width="52" height="20" as="geometry" />
        </mxCell>
        <mxCell id="dHWlD4So--FSExmU2GUl-7" value="" style="shape=curlyBracket;whiteSpace=wrap;html=1;rounded=1;shadow=0;glass=0;strokeColor=#000000;fillColor=none;fontColor=#000000;size=0.45;" vertex="1" parent="NFOAvo5q_f1hfCJbUeut-1">
          <mxGeometry x="252" y="110" width="20" height="120" as="geometry" />
        </mxCell>
        <mxCell id="dHWlD4So--FSExmU2GUl-8" value="账号活跃频率" style="text;html=1;strokeColor=none;fillColor=none;align=center;verticalAlign=middle;whiteSpace=wrap;rounded=0;shadow=0;glass=0;fontColor=#000000;" vertex="1" parent="NFOAvo5q_f1hfCJbUeut-1">
          <mxGeometry x="276" y="100" width="87" height="20" as="geometry" />
        </mxCell>
        <mxCell id="dHWlD4So--FSExmU2GUl-9" value="设备活跃频率" style="text;html=1;strokeColor=none;fillColor=none;align=center;verticalAlign=middle;whiteSpace=wrap;rounded=0;shadow=0;glass=0;fontColor=#000000;" vertex="1" parent="NFOAvo5q_f1hfCJbUeut-1">
          <mxGeometry x="276" y="216" width="87" height="20" as="geometry" />
        </mxCell>
        <mxCell id="dHWlD4So--FSExmU2GUl-10" value="" style="shape=curlyBracket;whiteSpace=wrap;html=1;rounded=1;shadow=0;glass=0;strokeColor=#000000;fillColor=none;fontColor=#000000;" vertex="1" parent="NFOAvo5q_f1hfCJbUeut-1">
          <mxGeometry x="252" y="256" width="20" height="120" as="geometry" />
        </mxCell>
        <mxCell id="dHWlD4So--FSExmU2GUl-11" value="账号属性" style="text;html=1;strokeColor=none;fillColor=none;align=center;verticalAlign=middle;whiteSpace=wrap;rounded=0;shadow=0;glass=0;fontColor=#000000;" vertex="1" parent="NFOAvo5q_f1hfCJbUeut-1">
          <mxGeometry x="279" y="248" width="65" height="20" as="geometry" />
        </mxCell>
        <mxCell id="dHWlD4So--FSExmU2GUl-12" value="设备属性" style="text;html=1;strokeColor=none;fillColor=none;align=center;verticalAlign=middle;whiteSpace=wrap;rounded=0;shadow=0;glass=0;fontColor=#000000;" vertex="1" parent="NFOAvo5q_f1hfCJbUeut-1">
          <mxGeometry x="281" y="286" width="57" height="20" as="geometry" />
        </mxCell>
        <mxCell id="dHWlD4So--FSExmU2GUl-13" value="ip属性" style="text;html=1;strokeColor=none;fillColor=none;align=center;verticalAlign=middle;whiteSpace=wrap;rounded=0;shadow=0;glass=0;fontColor=#000000;" vertex="1" parent="NFOAvo5q_f1hfCJbUeut-1">
          <mxGeometry x="283" y="324" width="57" height="20" as="geometry" />
        </mxCell>
        <mxCell id="dHWlD4So--FSExmU2GUl-14" value="画像标签" style="text;html=1;strokeColor=none;fillColor=none;align=center;verticalAlign=middle;whiteSpace=wrap;rounded=0;shadow=0;glass=0;fontColor=#FF0000;" vertex="1" parent="NFOAvo5q_f1hfCJbUeut-1">
          <mxGeometry x="281" y="367" width="57" height="20" as="geometry" />
        </mxCell>
        <mxCell id="vNjtfmcENKYwX4Q2T3yO-0" value="" style="edgeStyle=segmentEdgeStyle;endArrow=classic;html=1;dashed=1;dashPattern=1 1;fontColor=#FF0000;curved=1;" edge="1" parent="NFOAvo5q_f1hfCJbUeut-1">
          <mxGeometry width="50" height="50" relative="1" as="geometry">
            <mxPoint x="206" y="150" as="sourcePoint" />
            <mxPoint x="220" y="89" as="targetPoint" />
          </mxGeometry>
        </mxCell>
        <mxCell id="vNjtfmcENKYwX4Q2T3yO-2" value="依赖程度减轻" style="text;html=1;align=center;verticalAlign=middle;resizable=0;points=[];autosize=1;fontColor=#FF0000;" vertex="1" parent="NFOAvo5q_f1hfCJbUeut-1">
          <mxGeometry x="175" y="61" width="82" height="18" as="geometry" />
        </mxCell>
        <mxCell id="vNjtfmcENKYwX4Q2T3yO-3" value="" style="endArrow=classic;html=1;dashed=1;dashPattern=1 1;fontColor=#FF0000;" edge="1" parent="NFOAvo5q_f1hfCJbUeut-1">
          <mxGeometry width="50" height="50" relative="1" as="geometry">
            <mxPoint x="188" y="454.5" as="sourcePoint" />
            <mxPoint x="470" y="455" as="targetPoint" />
          </mxGeometry>
        </mxCell>
        <mxCell id="vNjtfmcENKYwX4Q2T3yO-4" value="根据账号的历史行为提取特征，加上画像特征" style="text;html=1;align=center;verticalAlign=middle;resizable=0;points=[];autosize=1;" vertex="1" parent="NFOAvo5q_f1hfCJbUeut-1">
          <mxGeometry x="203" y="431" width="250" height="18" as="geometry" />
        </mxCell>
        <mxCell id="NHVcFUi2DDHV8zNWTC1d-0" value="&lt;font style=&quot;font-size: 12px&quot;&gt;评估并拉黑或封禁&lt;/font&gt;" style="rounded=0;whiteSpace=wrap;html=1;shadow=1;glass=0;strokeColor=#000000;fillColor=none;fontSize=16;fontColor=#000000;" vertex="1" parent="NFOAvo5q_f1hfCJbUeut-1">
          <mxGeometry x="476" y="425" width="120" height="60" as="geometry" />
        </mxCell>
        <mxCell id="IP0Vtbld0ijrMdZ9dnPp-1" value="" style="shape=curlyBracket;whiteSpace=wrap;html=1;rounded=1;shadow=0;glass=0;sketch=0;strokeColor=#000000;fillColor=none;fontSize=16;fontColor=#000000;" vertex="1" parent="NFOAvo5q_f1hfCJbUeut-1">
          <mxGeometry x="52" y="236" width="20" height="219" as="geometry" />
        </mxCell>
        <mxCell id="qVa-tVfNX75Ar_vM6kE1-0" value="" style="verticalLabelPosition=bottom;verticalAlign=top;html=1;shape=mxgraph.basic.rect;fillColor2=none;strokeWidth=1;size=20;indent=5;fillColor=none;dashed=1;shadow=1;" vertex="1" parent="NFOAvo5q_f1hfCJbUeut-1">
          <mxGeometry x="252" y="242" width="95.5" height="168" as="geometry" />
        </mxCell>
        <mxCell id="csgIsYOoOpZhphePtdif-0" value="组合" style="text;html=1;strokeColor=none;fillColor=none;align=center;verticalAlign=middle;whiteSpace=wrap;rounded=0;dashed=1;" vertex="1" parent="NFOAvo5q_f1hfCJbUeut-1">
          <mxGeometry x="383.5" y="308" width="51" height="20" as="geometry" />
        </mxCell>
        <mxCell id="csgIsYOoOpZhphePtdif-1" value="" style="endArrow=classic;html=1;fontSize=16;fontColor=#000000;" edge="1" parent="NFOAvo5q_f1hfCJbUeut-1">
          <mxGeometry width="50" height="50" relative="1" as="geometry">
            <mxPoint x="352" y="331" as="sourcePoint" />
            <mxPoint x="469" y="331" as="targetPoint" />
          </mxGeometry>
        </mxCell>
        <mxCell id="nBcgkGnOQu_AE-v9XKzl-0" value="" style="endArrow=classic;html=1;curved=1;" edge="1" parent="NFOAvo5q_f1hfCJbUeut-1">
          <mxGeometry width="50" height="50" relative="1" as="geometry">
            <mxPoint x="363" y="107.5" as="sourcePoint" />
            <mxPoint x="467.5" y="167.5" as="targetPoint" />
          </mxGeometry>
        </mxCell>
        <mxCell id="nBcgkGnOQu_AE-v9XKzl-1" value="" style="endArrow=classic;html=1;exitX=1;exitY=0.5;exitDx=0;exitDy=0;curved=1;" edge="1" parent="NFOAvo5q_f1hfCJbUeut-1" source="dHWlD4So--FSExmU2GUl-9">
          <mxGeometry width="50" height="50" relative="1" as="geometry">
            <mxPoint x="376.5" y="232.5" as="sourcePoint" />
            <mxPoint x="467.5" y="167.5" as="targetPoint" />
          </mxGeometry>
        </mxCell>
        <mxCell id="OaW0zFfb2KpdmuL7L04P-0" value="&lt;font style=&quot;font-size: 12px&quot;&gt;频控策略打击等级&lt;/font&gt;" style="rounded=0;whiteSpace=wrap;html=1;shadow=1;glass=0;strokeColor=#000000;fillColor=none;fontSize=16;fontColor=#000000;" vertex="1" parent="NFOAvo5q_f1hfCJbUeut-1">
          <mxGeometry x="479" y="138" width="120" height="60" as="geometry" />
        </mxCell>
        <mxCell id="OaW0zFfb2KpdmuL7L04P-1" value="&lt;font style=&quot;font-size: 12px&quot;&gt;单点策略打击等级&lt;/font&gt;" style="rounded=0;whiteSpace=wrap;html=1;shadow=1;glass=0;strokeColor=#000000;fillColor=none;fontSize=16;fontColor=#000000;" vertex="1" parent="NFOAvo5q_f1hfCJbUeut-1">
          <mxGeometry x="477" y="304" width="120" height="60" as="geometry" />
        </mxCell>
        <mxCell id="YfEiOA35Ht25TBshpFXj-0" value="" style="shape=ext;double=1;rounded=0;whiteSpace=wrap;html=1;shadow=0;glass=0;fillColor=none;dashed=1;direction=south;" vertex="1" parent="NFOAvo5q_f1hfCJbUeut-1">
          <mxGeometry x="449" y="113" width="185" height="394" as="geometry" />
        </mxCell>
        <mxCell id="dbVtj3r97ZRs6LsDbUZg-0" value="" style="shape=flexArrow;endArrow=classic;html=1;fontSize=16;fontColor=#000000;" edge="1" parent="NFOAvo5q_f1hfCJbUeut-1">
          <mxGeometry width="50" height="50" relative="1" as="geometry">
            <mxPoint x="639" y="295.5" as="sourcePoint" />
            <mxPoint x="705" y="295.5" as="targetPoint" />
          </mxGeometry>
        </mxCell>
        <mxCell id="dbVtj3r97ZRs6LsDbUZg-1" value="&lt;font style=&quot;font-size: 12px&quot;&gt;最终打击结果&lt;/font&gt;" style="rounded=0;whiteSpace=wrap;html=1;shadow=1;glass=0;sketch=0;strokeColor=#000000;fillColor=none;fontSize=16;fontColor=#000000;" vertex="1" parent="NFOAvo5q_f1hfCJbUeut-1">
          <mxGeometry x="709" y="265" width="106" height="57" as="geometry" />
        </mxCell>
        <mxCell id="dbVtj3r97ZRs6LsDbUZg-3" value="" style="edgeStyle=segmentEdgeStyle;endArrow=classic;html=1;fontSize=16;fontColor=#000000;curved=1;dashed=1;dashPattern=1 1;" edge="1" parent="NFOAvo5q_f1hfCJbUeut-1">
          <mxGeometry width="50" height="50" relative="1" as="geometry">
            <mxPoint x="297.5" y="387" as="sourcePoint" />
            <mxPoint x="275" y="524" as="targetPoint" />
          </mxGeometry>
        </mxCell>
        <mxCell id="dbVtj3r97ZRs6LsDbUZg-4" value="降低了黑产绕过规则的可能性" style="text;html=1;align=center;verticalAlign=middle;resizable=0;points=[];autosize=1;fontSize=12;fontColor=#FF0000;" vertex="1" parent="NFOAvo5q_f1hfCJbUeut-1">
          <mxGeometry x="196" y="533" width="166" height="18" as="geometry" />
        </mxCell>
      </root>
    </mxGraphModel>
  </diagram>
  <diagram id="eHAzYdN4APWBnbfwUL-T" name="2021规划">
    <mxGraphModel dx="1186" dy="764" grid="0" gridSize="10" guides="1" tooltips="1" connect="1" arrows="1" fold="1" page="1" pageScale="1" pageWidth="827" pageHeight="1169" math="0" shadow="0">
      <root>
        <mxCell id="ocv63nRQh6Ttu1mkWuyw-0" />
        <mxCell id="ocv63nRQh6Ttu1mkWuyw-1" parent="ocv63nRQh6Ttu1mkWuyw-0" />
        <mxCell id="ocv63nRQh6Ttu1mkWuyw-2" value="&lt;font color=&quot;#000000&quot; style=&quot;font-size: 16px&quot;&gt;监控&lt;br&gt;熔断&lt;br&gt;报警&lt;/font&gt;" style="rounded=0;whiteSpace=wrap;html=1;shadow=0;glass=0;sketch=0;fillColor=#b1ddf0;fontSize=12;direction=south;strokeColor=none;" vertex="1" parent="ocv63nRQh6Ttu1mkWuyw-1">
          <mxGeometry x="40" y="147" width="60" height="424" as="geometry" />
        </mxCell>
        <mxCell id="ocv63nRQh6Ttu1mkWuyw-6" value="" style="rounded=0;whiteSpace=wrap;html=1;shadow=0;glass=0;sketch=0;fontSize=12;fillColor=#b1ddf0;strokeColor=none;" vertex="1" parent="ocv63nRQh6Ttu1mkWuyw-1">
          <mxGeometry x="143" y="147" width="169" height="90" as="geometry" />
        </mxCell>
        <mxCell id="ocv63nRQh6Ttu1mkWuyw-7" value="&lt;font color=&quot;#000000&quot;&gt;HDFS&lt;/font&gt;" style="rounded=1;whiteSpace=wrap;html=1;shadow=0;glass=0;sketch=0;fontSize=12;strokeColor=none;" vertex="1" parent="ocv63nRQh6Ttu1mkWuyw-1">
          <mxGeometry x="149" y="151" width="68" height="36" as="geometry" />
        </mxCell>
        <mxCell id="ocv63nRQh6Ttu1mkWuyw-8" value="&lt;font color=&quot;#000000&quot;&gt;TDW&lt;/font&gt;" style="rounded=1;whiteSpace=wrap;html=1;shadow=0;glass=0;sketch=0;fontSize=12;fontColor=#FF0000;strokeColor=none;" vertex="1" parent="ocv63nRQh6Ttu1mkWuyw-1">
          <mxGeometry x="235" y="151" width="68" height="36" as="geometry" />
        </mxCell>
        <mxCell id="ocv63nRQh6Ttu1mkWuyw-9" value="&lt;font color=&quot;#000000&quot;&gt;流式数据&lt;/font&gt;" style="rounded=1;whiteSpace=wrap;html=1;shadow=0;glass=0;sketch=0;fontSize=12;fontColor=#FF0000;strokeColor=none;" vertex="1" parent="ocv63nRQh6Ttu1mkWuyw-1">
          <mxGeometry x="149" y="196" width="68" height="36" as="geometry" />
        </mxCell>
        <mxCell id="ocv63nRQh6Ttu1mkWuyw-10" value="&lt;font color=&quot;#000000&quot;&gt;ETL&lt;/font&gt;" style="rounded=1;whiteSpace=wrap;html=1;shadow=0;glass=0;sketch=0;fontSize=12;fontColor=#FF0000;strokeColor=none;" vertex="1" parent="ocv63nRQh6Ttu1mkWuyw-1">
          <mxGeometry x="235" y="196" width="68" height="36" as="geometry" />
        </mxCell>
        <mxCell id="ocv63nRQh6Ttu1mkWuyw-11" value="" style="rounded=0;whiteSpace=wrap;html=1;shadow=0;glass=0;sketch=0;fontSize=12;fillColor=#b1ddf0;strokeColor=none;" vertex="1" parent="ocv63nRQh6Ttu1mkWuyw-1">
          <mxGeometry x="341" y="147" width="169" height="90" as="geometry" />
        </mxCell>
        <mxCell id="ocv63nRQh6Ttu1mkWuyw-12" value="&lt;font color=&quot;#000000&quot;&gt;归一化&lt;/font&gt;" style="rounded=1;whiteSpace=wrap;html=1;shadow=0;glass=0;sketch=0;fontSize=12;strokeColor=none;" vertex="1" parent="ocv63nRQh6Ttu1mkWuyw-1">
          <mxGeometry x="349" y="153" width="68" height="36" as="geometry" />
        </mxCell>
        <mxCell id="ocv63nRQh6Ttu1mkWuyw-13" value="&lt;font color=&quot;#000000&quot;&gt;特殊值处理&lt;/font&gt;" style="rounded=1;whiteSpace=wrap;html=1;shadow=0;glass=0;sketch=0;fontSize=12;strokeColor=none;" vertex="1" parent="ocv63nRQh6Ttu1mkWuyw-1">
          <mxGeometry x="434" y="153" width="68" height="36" as="geometry" />
        </mxCell>
        <mxCell id="ocv63nRQh6Ttu1mkWuyw-14" value="&lt;font color=&quot;#000000&quot;&gt;离散化&lt;/font&gt;" style="rounded=1;whiteSpace=wrap;html=1;shadow=0;glass=0;sketch=0;fontSize=12;strokeColor=none;" vertex="1" parent="ocv63nRQh6Ttu1mkWuyw-1">
          <mxGeometry x="349" y="196" width="68" height="36" as="geometry" />
        </mxCell>
        <mxCell id="ocv63nRQh6Ttu1mkWuyw-15" value="平滑" style="rounded=1;whiteSpace=wrap;html=1;shadow=0;glass=0;sketch=0;fontSize=12;strokeColor=none;" vertex="1" parent="ocv63nRQh6Ttu1mkWuyw-1">
          <mxGeometry x="434" y="196" width="68" height="36" as="geometry" />
        </mxCell>
        <mxCell id="ocv63nRQh6Ttu1mkWuyw-16" value="" style="rounded=0;whiteSpace=wrap;html=1;shadow=0;glass=0;sketch=0;fontSize=12;fillColor=#b1ddf0;strokeColor=none;" vertex="1" parent="ocv63nRQh6Ttu1mkWuyw-1">
          <mxGeometry x="545" y="147" width="169" height="90" as="geometry" />
        </mxCell>
        <mxCell id="ocv63nRQh6Ttu1mkWuyw-17" value="&lt;font color=&quot;#000000&quot;&gt;信息增益&lt;/font&gt;" style="rounded=1;whiteSpace=wrap;html=1;shadow=0;glass=0;sketch=0;fontSize=12;strokeColor=none;" vertex="1" parent="ocv63nRQh6Ttu1mkWuyw-1">
          <mxGeometry x="553" y="155" width="68" height="36" as="geometry" />
        </mxCell>
        <mxCell id="ocv63nRQh6Ttu1mkWuyw-18" value="&lt;font color=&quot;#000000&quot;&gt;PSI&lt;/font&gt;" style="rounded=1;whiteSpace=wrap;html=1;shadow=0;glass=0;sketch=0;fontSize=12;strokeColor=none;" vertex="1" parent="ocv63nRQh6Ttu1mkWuyw-1">
          <mxGeometry x="638" y="155" width="68" height="36" as="geometry" />
        </mxCell>
        <mxCell id="ocv63nRQh6Ttu1mkWuyw-19" value="&lt;font color=&quot;#000000&quot;&gt;去相关性&lt;/font&gt;" style="rounded=1;whiteSpace=wrap;html=1;shadow=0;glass=0;sketch=0;fontSize=12;strokeColor=none;" vertex="1" parent="ocv63nRQh6Ttu1mkWuyw-1">
          <mxGeometry x="553" y="196" width="68" height="36" as="geometry" />
        </mxCell>
        <mxCell id="ocv63nRQh6Ttu1mkWuyw-20" value="IV" style="rounded=1;whiteSpace=wrap;html=1;shadow=0;glass=0;sketch=0;fontSize=12;strokeColor=none;" vertex="1" parent="ocv63nRQh6Ttu1mkWuyw-1">
          <mxGeometry x="638" y="196" width="68" height="36" as="geometry" />
        </mxCell>
        <mxCell id="ocv63nRQh6Ttu1mkWuyw-21" value="" style="rounded=0;whiteSpace=wrap;html=1;shadow=0;glass=0;sketch=0;fillColor=#b1ddf0;fontSize=12;direction=south;strokeColor=none;" vertex="1" parent="ocv63nRQh6Ttu1mkWuyw-1">
          <mxGeometry x="142" y="268" width="572" height="296" as="geometry" />
        </mxCell>
        <mxCell id="ocv63nRQh6Ttu1mkWuyw-25" value="" style="verticalLabelPosition=bottom;verticalAlign=top;html=1;strokeWidth=2;shape=mxgraph.arrows2.arrow;dy=0.6;dx=40;notch=0;rounded=1;shadow=0;glass=0;sketch=0;fillColor=#ffffff;fontSize=12;fontColor=#FF0000;rotation=89;direction=east;" vertex="1" parent="ocv63nRQh6Ttu1mkWuyw-1">
          <mxGeometry x="190.75" y="239.23" width="73.5" height="78.79" as="geometry" />
        </mxCell>
        <mxCell id="ocv63nRQh6Ttu1mkWuyw-26" value="&lt;font color=&quot;#000000&quot; style=&quot;font-size: 16px&quot;&gt;特征库&lt;/font&gt;" style="rounded=1;whiteSpace=wrap;html=1;shadow=0;glass=0;sketch=0;fontSize=12;fontColor=#FF0000;strokeColor=none;" vertex="1" parent="ocv63nRQh6Ttu1mkWuyw-1">
          <mxGeometry x="173.69" y="318.02" width="107.62" height="50.98" as="geometry" />
        </mxCell>
        <mxCell id="ocv63nRQh6Ttu1mkWuyw-27" value="" style="verticalLabelPosition=bottom;verticalAlign=top;html=1;strokeWidth=2;shape=mxgraph.arrows2.arrow;dy=0.6;dx=40;notch=0;rounded=1;shadow=0;glass=0;sketch=0;fillColor=#ffffff;fontSize=12;fontColor=#FF0000;rotation=89;direction=east;" vertex="1" parent="ocv63nRQh6Ttu1mkWuyw-1">
          <mxGeometry x="391.25" y="239.23" width="73.5" height="78.79" as="geometry" />
        </mxCell>
        <mxCell id="ocv63nRQh6Ttu1mkWuyw-28" value="&lt;font color=&quot;#000000&quot; style=&quot;font-size: 16px&quot;&gt;特征处理&lt;/font&gt;" style="rounded=1;whiteSpace=wrap;html=1;shadow=0;glass=0;sketch=0;fontSize=12;fontColor=#FF0000;strokeColor=none;" vertex="1" parent="ocv63nRQh6Ttu1mkWuyw-1">
          <mxGeometry x="374.19" y="318.02" width="107.62" height="50.98" as="geometry" />
        </mxCell>
        <mxCell id="ocv63nRQh6Ttu1mkWuyw-29" value="" style="verticalLabelPosition=bottom;verticalAlign=top;html=1;strokeWidth=2;shape=mxgraph.arrows2.arrow;dy=0.6;dx=40;notch=0;rounded=1;shadow=0;glass=0;sketch=0;fillColor=#ffffff;fontSize=12;fontColor=#FF0000;rotation=89;direction=east;" vertex="1" parent="ocv63nRQh6Ttu1mkWuyw-1">
          <mxGeometry x="592.75" y="239.23" width="73.5" height="78.79" as="geometry" />
        </mxCell>
        <mxCell id="ocv63nRQh6Ttu1mkWuyw-30" value="&lt;font color=&quot;#000000&quot; style=&quot;font-size: 16px&quot;&gt;特征选择&lt;/font&gt;" style="rounded=1;whiteSpace=wrap;html=1;shadow=0;glass=0;sketch=0;fontSize=12;fontColor=#FF0000;strokeColor=none;" vertex="1" parent="ocv63nRQh6Ttu1mkWuyw-1">
          <mxGeometry x="575.69" y="318.02" width="107.62" height="50.98" as="geometry" />
        </mxCell>
      </root>
    </mxGraphModel>
  </diagram>
</mxfile>
